M48
; DRILL file {KiCad 8.0.2-8.0.2-0~ubuntu24.04.1} date 2024-06-01T21:52:59+1000
; FORMAT={-:-/ absolute / inch / decimal}
; #@! TF.CreationDate,2024-06-01T21:52:59+10:00
; #@! TF.GenerationSoftware,Kicad,Pcbnew,8.0.2-8.0.2-0~ubuntu24.04.1
; #@! TF.FileFunction,Plated,1,2,PTH
FMAT,2
INCH
; #@! TA.AperFunction,Plated,PTH,ViaDrill
T1C0.0118
; #@! TA.AperFunction,Plated,PTH,ComponentDrill
T2C0.0315
; #@! TA.AperFunction,Plated,PTH,ComponentDrill
T3C0.0512
%
G90
G05
T1
X4.9Y-2.8
X4.9Y-3.0
X4.98Y-3.84
X5.08Y-2.9
X5.08Y-3.84
X5.18Y-3.84
X5.28Y-3.84
X5.3Y-2.8
X5.3Y-3.0
X5.38Y-3.84
X5.48Y-3.84
X5.58Y-2.8
X5.58Y-3.0
X5.58Y-3.84
X5.68Y-2.8
X5.68Y-3.0
X5.68Y-3.84
X5.78Y-2.8
X5.78Y-3.0
X5.78Y-3.84
X5.88Y-2.8
X5.88Y-3.0
X5.88Y-3.84
X5.98Y-2.9
X5.98Y-3.84
X6.08Y-2.9
T2
X4.7762Y-2.5573
X4.7762Y-3.1573
X4.8762Y-2.5573
X4.8762Y-3.1573
X4.9762Y-2.5573
X4.9762Y-3.1573
X5.0762Y-2.5573
X5.0762Y-3.1573
X5.1762Y-2.5573
X5.1762Y-3.1573
X5.2762Y-2.5573
X5.2762Y-3.1573
X5.3762Y-2.5573
X5.3762Y-3.1573
X5.4762Y-2.5573
X5.4762Y-3.1573
X5.5762Y-2.5573
X5.5762Y-3.1573
X5.6762Y-2.5573
X5.6762Y-3.1573
X5.7762Y-2.5573
X5.7762Y-3.1573
X5.8762Y-2.5573
X5.8762Y-3.1573
X5.9762Y-2.5573
X5.9762Y-3.1573
X6.0762Y-2.5573
X6.0762Y-3.1573
T3
X4.88Y-3.685
X4.88Y-3.985
X4.98Y-3.685
X4.98Y-3.985
X5.08Y-3.685
X5.08Y-3.985
X5.18Y-3.685
X5.18Y-3.985
X5.28Y-3.685
X5.28Y-3.985
X5.38Y-3.685
X5.38Y-3.985
X5.48Y-3.685
X5.48Y-3.985
X5.58Y-3.685
X5.58Y-3.985
X5.68Y-3.685
X5.68Y-3.985
X5.78Y-3.685
X5.78Y-3.985
X5.88Y-3.685
X5.88Y-3.985
X5.98Y-3.685
X5.98Y-3.985
M30
