%TF.GenerationSoftware,KiCad,Pcbnew,8.0.2-8.0.2-0~ubuntu24.04.1*%
%TF.CreationDate,2024-06-01T21:52:56+10:00*%
%TF.ProjectId,NES_RAM-ADAPTER,4e45535f-5241-44d2-9d41-444150544552,rev?*%
%TF.SameCoordinates,Original*%
%TF.FileFunction,Legend,Top*%
%TF.FilePolarity,Positive*%
%FSLAX46Y46*%
G04 Gerber Fmt 4.6, Leading zero omitted, Abs format (unit mm)*
G04 Created by KiCad (PCBNEW 8.0.2-8.0.2-0~ubuntu24.04.1) date 2024-06-01 21:52:56*
%MOMM*%
%LPD*%
G01*
G04 APERTURE LIST*
%ADD10C,0.150000*%
%ADD11C,0.120000*%
G04 APERTURE END LIST*
D10*
X119439819Y-77503570D02*
X118439819Y-77503570D01*
X118439819Y-77503570D02*
X118439819Y-77265475D01*
X118439819Y-77265475D02*
X118487438Y-77122618D01*
X118487438Y-77122618D02*
X118582676Y-77027380D01*
X118582676Y-77027380D02*
X118677914Y-76979761D01*
X118677914Y-76979761D02*
X118868390Y-76932142D01*
X118868390Y-76932142D02*
X119011247Y-76932142D01*
X119011247Y-76932142D02*
X119201723Y-76979761D01*
X119201723Y-76979761D02*
X119296961Y-77027380D01*
X119296961Y-77027380D02*
X119392200Y-77122618D01*
X119392200Y-77122618D02*
X119439819Y-77265475D01*
X119439819Y-77265475D02*
X119439819Y-77503570D01*
X119439819Y-76503570D02*
X118439819Y-76503570D01*
X119439819Y-76027380D02*
X118439819Y-76027380D01*
X118439819Y-76027380D02*
X118439819Y-75646428D01*
X118439819Y-75646428D02*
X118487438Y-75551190D01*
X118487438Y-75551190D02*
X118535057Y-75503571D01*
X118535057Y-75503571D02*
X118630295Y-75455952D01*
X118630295Y-75455952D02*
X118773152Y-75455952D01*
X118773152Y-75455952D02*
X118868390Y-75503571D01*
X118868390Y-75503571D02*
X118916009Y-75551190D01*
X118916009Y-75551190D02*
X118963628Y-75646428D01*
X118963628Y-75646428D02*
X118963628Y-76027380D01*
X119058866Y-75027380D02*
X119058866Y-74265476D01*
X118535057Y-73836904D02*
X118487438Y-73789285D01*
X118487438Y-73789285D02*
X118439819Y-73694047D01*
X118439819Y-73694047D02*
X118439819Y-73455952D01*
X118439819Y-73455952D02*
X118487438Y-73360714D01*
X118487438Y-73360714D02*
X118535057Y-73313095D01*
X118535057Y-73313095D02*
X118630295Y-73265476D01*
X118630295Y-73265476D02*
X118725533Y-73265476D01*
X118725533Y-73265476D02*
X118868390Y-73313095D01*
X118868390Y-73313095D02*
X119439819Y-73884523D01*
X119439819Y-73884523D02*
X119439819Y-73265476D01*
X118868390Y-72694047D02*
X118820771Y-72789285D01*
X118820771Y-72789285D02*
X118773152Y-72836904D01*
X118773152Y-72836904D02*
X118677914Y-72884523D01*
X118677914Y-72884523D02*
X118630295Y-72884523D01*
X118630295Y-72884523D02*
X118535057Y-72836904D01*
X118535057Y-72836904D02*
X118487438Y-72789285D01*
X118487438Y-72789285D02*
X118439819Y-72694047D01*
X118439819Y-72694047D02*
X118439819Y-72503571D01*
X118439819Y-72503571D02*
X118487438Y-72408333D01*
X118487438Y-72408333D02*
X118535057Y-72360714D01*
X118535057Y-72360714D02*
X118630295Y-72313095D01*
X118630295Y-72313095D02*
X118677914Y-72313095D01*
X118677914Y-72313095D02*
X118773152Y-72360714D01*
X118773152Y-72360714D02*
X118820771Y-72408333D01*
X118820771Y-72408333D02*
X118868390Y-72503571D01*
X118868390Y-72503571D02*
X118868390Y-72694047D01*
X118868390Y-72694047D02*
X118916009Y-72789285D01*
X118916009Y-72789285D02*
X118963628Y-72836904D01*
X118963628Y-72836904D02*
X119058866Y-72884523D01*
X119058866Y-72884523D02*
X119249342Y-72884523D01*
X119249342Y-72884523D02*
X119344580Y-72836904D01*
X119344580Y-72836904D02*
X119392200Y-72789285D01*
X119392200Y-72789285D02*
X119439819Y-72694047D01*
X119439819Y-72694047D02*
X119439819Y-72503571D01*
X119439819Y-72503571D02*
X119392200Y-72408333D01*
X119392200Y-72408333D02*
X119344580Y-72360714D01*
X119344580Y-72360714D02*
X119249342Y-72313095D01*
X119249342Y-72313095D02*
X119058866Y-72313095D01*
X119058866Y-72313095D02*
X118963628Y-72360714D01*
X118963628Y-72360714D02*
X118916009Y-72408333D01*
X118916009Y-72408333D02*
X118868390Y-72503571D01*
X119535057Y-72122619D02*
X119535057Y-71360714D01*
X119392200Y-71170237D02*
X119439819Y-71027380D01*
X119439819Y-71027380D02*
X119439819Y-70789285D01*
X119439819Y-70789285D02*
X119392200Y-70694047D01*
X119392200Y-70694047D02*
X119344580Y-70646428D01*
X119344580Y-70646428D02*
X119249342Y-70598809D01*
X119249342Y-70598809D02*
X119154104Y-70598809D01*
X119154104Y-70598809D02*
X119058866Y-70646428D01*
X119058866Y-70646428D02*
X119011247Y-70694047D01*
X119011247Y-70694047D02*
X118963628Y-70789285D01*
X118963628Y-70789285D02*
X118916009Y-70979761D01*
X118916009Y-70979761D02*
X118868390Y-71074999D01*
X118868390Y-71074999D02*
X118820771Y-71122618D01*
X118820771Y-71122618D02*
X118725533Y-71170237D01*
X118725533Y-71170237D02*
X118630295Y-71170237D01*
X118630295Y-71170237D02*
X118535057Y-71122618D01*
X118535057Y-71122618D02*
X118487438Y-71074999D01*
X118487438Y-71074999D02*
X118439819Y-70979761D01*
X118439819Y-70979761D02*
X118439819Y-70741666D01*
X118439819Y-70741666D02*
X118487438Y-70598809D01*
X119439819Y-69598809D02*
X118963628Y-69932142D01*
X119439819Y-70170237D02*
X118439819Y-70170237D01*
X118439819Y-70170237D02*
X118439819Y-69789285D01*
X118439819Y-69789285D02*
X118487438Y-69694047D01*
X118487438Y-69694047D02*
X118535057Y-69646428D01*
X118535057Y-69646428D02*
X118630295Y-69598809D01*
X118630295Y-69598809D02*
X118773152Y-69598809D01*
X118773152Y-69598809D02*
X118868390Y-69646428D01*
X118868390Y-69646428D02*
X118916009Y-69694047D01*
X118916009Y-69694047D02*
X118963628Y-69789285D01*
X118963628Y-69789285D02*
X118963628Y-70170237D01*
X119154104Y-69217856D02*
X119154104Y-68741666D01*
X119439819Y-69313094D02*
X118439819Y-68979761D01*
X118439819Y-68979761D02*
X119439819Y-68646428D01*
X119439819Y-68313094D02*
X118439819Y-68313094D01*
X118439819Y-68313094D02*
X119154104Y-67979761D01*
X119154104Y-67979761D02*
X118439819Y-67646428D01*
X118439819Y-67646428D02*
X119439819Y-67646428D01*
D11*
%TO.C,DIP-28_SRAM*%
X119985000Y-71575000D02*
G75*
G02*
X119985000Y-73575000I0J-1000000D01*
G01*
X155665000Y-66515000D02*
X119985000Y-66515000D01*
X119985000Y-66515000D02*
X119985000Y-71575000D01*
X119985000Y-73575000D02*
X119985000Y-78635000D01*
X155665000Y-78635000D02*
X155665000Y-66515000D01*
X119985000Y-78635000D02*
X155665000Y-78635000D01*
%TO.C,NES_MAINBOARD_DIP24RAMPADS*%
X122622000Y-99659000D02*
X153222000Y-99659000D01*
X153222000Y-99659000D02*
X153222000Y-95159000D01*
X122622000Y-98409000D02*
X122622000Y-99659000D01*
X122622000Y-95159000D02*
X122622000Y-96409000D01*
X153222000Y-95159000D02*
X122622000Y-95159000D01*
X122622000Y-96409000D02*
G75*
G02*
X122622000Y-98409000I0J-1000000D01*
G01*
%TD*%
M02*
