%TF.GenerationSoftware,KiCad,Pcbnew,8.0.2-8.0.2-0~ubuntu24.04.1*%
%TF.CreationDate,2024-06-01T21:52:56+10:00*%
%TF.ProjectId,NES_RAM-ADAPTER,4e45535f-5241-44d2-9d41-444150544552,rev?*%
%TF.SameCoordinates,Original*%
%TF.FileFunction,Soldermask,Bot*%
%TF.FilePolarity,Negative*%
%FSLAX46Y46*%
G04 Gerber Fmt 4.6, Leading zero omitted, Abs format (unit mm)*
G04 Created by KiCad (PCBNEW 8.0.2-8.0.2-0~ubuntu24.04.1) date 2024-06-01 21:52:56*
%MOMM*%
%LPD*%
G01*
G04 APERTURE LIST*
%ADD10O,1.600000X2.400000*%
%ADD11R,1.600000X2.400000*%
G04 APERTURE END LIST*
D10*
%TO.C,DIP-28_SRAM*%
X121315000Y-64955000D03*
X123855000Y-64955000D03*
X126395000Y-64955000D03*
X128935000Y-64955000D03*
X131475000Y-64955000D03*
X134015000Y-64955000D03*
X136555000Y-64955000D03*
X139095000Y-64955000D03*
X141635000Y-64955000D03*
X144175000Y-64955000D03*
X146715000Y-64955000D03*
X149255000Y-64955000D03*
X151795000Y-64955000D03*
X154335000Y-64955000D03*
X154335000Y-80195000D03*
X151795000Y-80195000D03*
X149255000Y-80195000D03*
X146715000Y-80195000D03*
X144175000Y-80195000D03*
X141635000Y-80195000D03*
X139095000Y-80195000D03*
X136555000Y-80195000D03*
X134015000Y-80195000D03*
X131475000Y-80195000D03*
X128935000Y-80195000D03*
X126395000Y-80195000D03*
X123855000Y-80195000D03*
D11*
X121315000Y-80195000D03*
%TD*%
%TO.C,NES_MAINBOARD_DIP24RAMPADS*%
X123952000Y-101219000D03*
D10*
X126492000Y-101219000D03*
X129032000Y-101219000D03*
X131572000Y-101219000D03*
X134112000Y-101219000D03*
X136652000Y-101219000D03*
X139192000Y-101219000D03*
X141732000Y-101219000D03*
X144272000Y-101219000D03*
X146812000Y-101219000D03*
X149352000Y-101219000D03*
X151892000Y-101219000D03*
X151892000Y-93599000D03*
X149352000Y-93599000D03*
X146812000Y-93599000D03*
X144272000Y-93599000D03*
X141732000Y-93599000D03*
X139192000Y-93599000D03*
X136652000Y-93599000D03*
X134112000Y-93599000D03*
X131572000Y-93599000D03*
X129032000Y-93599000D03*
X126492000Y-93599000D03*
X123952000Y-93599000D03*
%TD*%
M02*
