%TF.GenerationSoftware,KiCad,Pcbnew,8.0.2-8.0.2-0~ubuntu24.04.1*%
%TF.CreationDate,2024-06-01T21:52:56+10:00*%
%TF.ProjectId,NES_RAM-ADAPTER,4e45535f-5241-44d2-9d41-444150544552,rev?*%
%TF.SameCoordinates,Original*%
%TF.FileFunction,Copper,L1,Top*%
%TF.FilePolarity,Positive*%
%FSLAX46Y46*%
G04 Gerber Fmt 4.6, Leading zero omitted, Abs format (unit mm)*
G04 Created by KiCad (PCBNEW 8.0.2-8.0.2-0~ubuntu24.04.1) date 2024-06-01 21:52:56*
%MOMM*%
%LPD*%
G01*
G04 APERTURE LIST*
%TA.AperFunction,ComponentPad*%
%ADD10O,1.600000X2.400000*%
%TD*%
%TA.AperFunction,ComponentPad*%
%ADD11R,1.600000X2.400000*%
%TD*%
%TA.AperFunction,ViaPad*%
%ADD12C,0.600000*%
%TD*%
%TA.AperFunction,Conductor*%
%ADD13C,0.200000*%
%TD*%
G04 APERTURE END LIST*
D10*
%TO.P,DIP-28_SRAM,28*%
%TO.N,5v*%
X121315000Y-64955000D03*
%TO.P,DIP-28_SRAM,27*%
%TO.N,WE*%
X123855000Y-64955000D03*
%TO.P,DIP-28_SRAM,26*%
%TO.N,5v*%
X126395000Y-64955000D03*
%TO.P,DIP-28_SRAM,25*%
%TO.N,A8*%
X128935000Y-64955000D03*
%TO.P,DIP-28_SRAM,24*%
%TO.N,A9*%
X131475000Y-64955000D03*
%TO.P,DIP-28_SRAM,23*%
%TO.N,5v*%
X134015000Y-64955000D03*
%TO.P,DIP-28_SRAM,22*%
%TO.N,GND*%
X136555000Y-64955000D03*
%TO.P,DIP-28_SRAM,21*%
%TO.N,A10*%
X139095000Y-64955000D03*
%TO.P,DIP-28_SRAM,20*%
%TO.N,CE*%
X141635000Y-64955000D03*
%TO.P,DIP-28_SRAM,19*%
%TO.N,D7*%
X144175000Y-64955000D03*
%TO.P,DIP-28_SRAM,18*%
%TO.N,D6*%
X146715000Y-64955000D03*
%TO.P,DIP-28_SRAM,17*%
%TO.N,D5*%
X149255000Y-64955000D03*
%TO.P,DIP-28_SRAM,16*%
%TO.N,D4*%
X151795000Y-64955000D03*
%TO.P,DIP-28_SRAM,15*%
%TO.N,D3*%
X154335000Y-64955000D03*
%TO.P,DIP-28_SRAM,14*%
%TO.N,GND*%
X154335000Y-80195000D03*
%TO.P,DIP-28_SRAM,13*%
%TO.N,D2*%
X151795000Y-80195000D03*
%TO.P,DIP-28_SRAM,12*%
%TO.N,D1*%
X149255000Y-80195000D03*
%TO.P,DIP-28_SRAM,11*%
%TO.N,D0*%
X146715000Y-80195000D03*
%TO.P,DIP-28_SRAM,10*%
%TO.N,A0*%
X144175000Y-80195000D03*
%TO.P,DIP-28_SRAM,9*%
%TO.N,A1*%
X141635000Y-80195000D03*
%TO.P,DIP-28_SRAM,8*%
%TO.N,A2*%
X139095000Y-80195000D03*
%TO.P,DIP-28_SRAM,7*%
%TO.N,A3*%
X136555000Y-80195000D03*
%TO.P,DIP-28_SRAM,6*%
%TO.N,A4*%
X134015000Y-80195000D03*
%TO.P,DIP-28_SRAM,5*%
%TO.N,A5*%
X131475000Y-80195000D03*
%TO.P,DIP-28_SRAM,4*%
%TO.N,A6*%
X128935000Y-80195000D03*
%TO.P,DIP-28_SRAM,3*%
%TO.N,A7*%
X126395000Y-80195000D03*
%TO.P,DIP-28_SRAM,2*%
%TO.N,5v*%
X123855000Y-80195000D03*
D11*
%TO.P,DIP-28_SRAM,1*%
X121315000Y-80195000D03*
%TD*%
%TO.P,NES_MAINBOARD_DIP24RAMPADS,1*%
%TO.N,A7*%
X123952000Y-101219000D03*
D10*
%TO.P,NES_MAINBOARD_DIP24RAMPADS,2*%
%TO.N,A6*%
X126492000Y-101219000D03*
%TO.P,NES_MAINBOARD_DIP24RAMPADS,3*%
%TO.N,A5*%
X129032000Y-101219000D03*
%TO.P,NES_MAINBOARD_DIP24RAMPADS,4*%
%TO.N,A4*%
X131572000Y-101219000D03*
%TO.P,NES_MAINBOARD_DIP24RAMPADS,5*%
%TO.N,A3*%
X134112000Y-101219000D03*
%TO.P,NES_MAINBOARD_DIP24RAMPADS,6*%
%TO.N,A2*%
X136652000Y-101219000D03*
%TO.P,NES_MAINBOARD_DIP24RAMPADS,7*%
%TO.N,A1*%
X139192000Y-101219000D03*
%TO.P,NES_MAINBOARD_DIP24RAMPADS,8*%
%TO.N,A0*%
X141732000Y-101219000D03*
%TO.P,NES_MAINBOARD_DIP24RAMPADS,9*%
%TO.N,D0*%
X144272000Y-101219000D03*
%TO.P,NES_MAINBOARD_DIP24RAMPADS,10*%
%TO.N,D1*%
X146812000Y-101219000D03*
%TO.P,NES_MAINBOARD_DIP24RAMPADS,11*%
%TO.N,D2*%
X149352000Y-101219000D03*
%TO.P,NES_MAINBOARD_DIP24RAMPADS,12*%
%TO.N,GND*%
X151892000Y-101219000D03*
%TO.P,NES_MAINBOARD_DIP24RAMPADS,13*%
%TO.N,D3*%
X151892000Y-93599000D03*
%TO.P,NES_MAINBOARD_DIP24RAMPADS,14*%
%TO.N,D4*%
X149352000Y-93599000D03*
%TO.P,NES_MAINBOARD_DIP24RAMPADS,15*%
%TO.N,D5*%
X146812000Y-93599000D03*
%TO.P,NES_MAINBOARD_DIP24RAMPADS,16*%
%TO.N,D6*%
X144272000Y-93599000D03*
%TO.P,NES_MAINBOARD_DIP24RAMPADS,17*%
%TO.N,D7*%
X141732000Y-93599000D03*
%TO.P,NES_MAINBOARD_DIP24RAMPADS,18*%
%TO.N,CE*%
X139192000Y-93599000D03*
%TO.P,NES_MAINBOARD_DIP24RAMPADS,19*%
%TO.N,A10*%
X136652000Y-93599000D03*
%TO.P,NES_MAINBOARD_DIP24RAMPADS,20*%
%TO.N,GND*%
X134112000Y-93599000D03*
%TO.P,NES_MAINBOARD_DIP24RAMPADS,21*%
%TO.N,WE*%
X131572000Y-93599000D03*
%TO.P,NES_MAINBOARD_DIP24RAMPADS,22*%
%TO.N,A9*%
X129032000Y-93599000D03*
%TO.P,NES_MAINBOARD_DIP24RAMPADS,23*%
%TO.N,A8*%
X126492000Y-93599000D03*
%TO.P,NES_MAINBOARD_DIP24RAMPADS,24*%
%TO.N,5v*%
X123952000Y-93599000D03*
%TD*%
D12*
%TO.N,GND*%
X126492000Y-97536000D03*
X129032000Y-97536000D03*
X131572000Y-97536000D03*
X134112000Y-97536000D03*
X136652000Y-97536000D03*
X139192000Y-97536000D03*
X141732000Y-97536000D03*
X144272000Y-97536000D03*
X146812000Y-97536000D03*
X149352000Y-97536000D03*
X151892000Y-97536000D03*
X129032000Y-73660000D03*
X154432000Y-73660000D03*
X151892000Y-73660000D03*
X149352000Y-76200000D03*
X149352000Y-71120000D03*
X146812000Y-76200000D03*
X146812000Y-71120000D03*
X144272000Y-76200000D03*
X144272000Y-71120000D03*
X141732000Y-76200000D03*
X141732000Y-71120000D03*
X134620000Y-76200000D03*
X134620000Y-71120000D03*
X124460000Y-76200000D03*
X124460000Y-71120000D03*
%TD*%
D13*
%TO.N,A4*%
X133012000Y-85344000D02*
X133012000Y-99779000D01*
X134015000Y-80195000D02*
X134015000Y-84341000D01*
X134015000Y-84341000D02*
X133012000Y-85344000D01*
%TO.N,D3*%
X151892000Y-93599000D02*
X151892000Y-86868000D01*
X151892000Y-86868000D02*
X153235000Y-85525000D01*
X153235000Y-85525000D02*
X153235000Y-68961000D01*
X153235000Y-68961000D02*
X154335000Y-67861000D01*
X154335000Y-67861000D02*
X154335000Y-64955000D01*
%TO.N,D2*%
X150452000Y-86360000D02*
X150452000Y-100119000D01*
X151795000Y-80195000D02*
X151795000Y-85017000D01*
X151795000Y-85017000D02*
X150452000Y-86360000D01*
%TO.N,CE*%
X139192000Y-93599000D02*
X139192000Y-86868000D01*
X139192000Y-86868000D02*
X139700000Y-86360000D01*
X141635000Y-64955000D02*
X140195000Y-66395000D01*
X140195000Y-66395000D02*
X140195000Y-83325000D01*
X140195000Y-83325000D02*
X139700000Y-83820000D01*
X139700000Y-83820000D02*
X139700000Y-86360000D01*
%TO.N,A1*%
X140632000Y-83820000D02*
X140632000Y-99779000D01*
X141635000Y-80195000D02*
X141635000Y-82817000D01*
X141635000Y-82817000D02*
X140632000Y-83820000D01*
%TO.N,5v*%
X126395000Y-64955000D02*
X124895000Y-66455000D01*
X124895000Y-66455000D02*
X122815000Y-66455000D01*
X122815000Y-66455000D02*
X121315000Y-64955000D01*
X121315000Y-64955000D02*
X121315000Y-80195000D01*
%TO.N,A8*%
X126492000Y-93599000D02*
X126492000Y-83693000D01*
X126492000Y-83693000D02*
X127835000Y-82350000D01*
X127835000Y-82350000D02*
X127835000Y-69015000D01*
X127835000Y-69015000D02*
X128905000Y-67945000D01*
X128905000Y-67945000D02*
X128905000Y-67310000D01*
X128905000Y-67310000D02*
X128935000Y-67280000D01*
X128935000Y-67280000D02*
X128935000Y-64955000D01*
%TO.N,A6*%
X128935000Y-80195000D02*
X128935000Y-83155000D01*
X128935000Y-83155000D02*
X128905000Y-83185000D01*
X128905000Y-83185000D02*
X128905000Y-83820000D01*
X128905000Y-83820000D02*
X127932000Y-84793000D01*
X127932000Y-84793000D02*
X127932000Y-99779000D01*
X127932000Y-99779000D02*
X126492000Y-101219000D01*
%TO.N,A9*%
X129032000Y-93599000D02*
X129032000Y-84963000D01*
X129032000Y-84963000D02*
X130035000Y-83960000D01*
X130035000Y-66395000D02*
X130035000Y-83960000D01*
X131475000Y-64955000D02*
X130035000Y-66395000D01*
%TO.N,A5*%
X130472000Y-86360000D02*
X130472000Y-99779000D01*
X131475000Y-80195000D02*
X131475000Y-85357000D01*
X131475000Y-85357000D02*
X130472000Y-86360000D01*
X130472000Y-99779000D02*
X129032000Y-101219000D01*
%TO.N,A10*%
X139095000Y-64955000D02*
X137995000Y-66055000D01*
X137995000Y-66055000D02*
X137995000Y-84890000D01*
X137995000Y-84890000D02*
X136652000Y-86233000D01*
X136652000Y-86233000D02*
X136652000Y-93599000D01*
%TO.N,A2*%
X139095000Y-80195000D02*
X139095000Y-84425000D01*
X138092000Y-99779000D02*
X136652000Y-101219000D01*
X139095000Y-84425000D02*
X138092000Y-85428000D01*
X138092000Y-85428000D02*
X138092000Y-99779000D01*
%TO.N,D7*%
X144175000Y-64955000D02*
X143006315Y-66123685D01*
X143006315Y-66123685D02*
X143006315Y-83688685D01*
X143006315Y-83688685D02*
X141732000Y-84963000D01*
X141732000Y-84963000D02*
X141732000Y-93599000D01*
%TO.N,A0*%
X144175000Y-80195000D02*
X144175000Y-83155000D01*
X144175000Y-83155000D02*
X143172000Y-84158000D01*
X143172000Y-84158000D02*
X143172000Y-99779000D01*
X143172000Y-99779000D02*
X141732000Y-101219000D01*
%TO.N,D6*%
X146715000Y-64955000D02*
X145546315Y-66123685D01*
X145546315Y-66123685D02*
X145546315Y-83688685D01*
X145546315Y-83688685D02*
X144272000Y-84963000D01*
X144272000Y-84963000D02*
X144272000Y-93599000D01*
%TO.N,D0*%
X146715000Y-80195000D02*
X146715000Y-83155000D01*
X146715000Y-83155000D02*
X145712000Y-84158000D01*
X145712000Y-84158000D02*
X145712000Y-99779000D01*
X145712000Y-99779000D02*
X144272000Y-101219000D01*
%TO.N,D5*%
X149255000Y-64955000D02*
X149255000Y-68296000D01*
X149255000Y-68296000D02*
X147955000Y-69596000D01*
X147955000Y-69596000D02*
X147955000Y-83312000D01*
X146812000Y-84455000D02*
X146812000Y-93599000D01*
X147955000Y-83312000D02*
X146812000Y-84455000D01*
%TO.N,D4*%
X150695000Y-71755000D02*
X150695000Y-83620000D01*
X151795000Y-64955000D02*
X151795000Y-70655000D01*
X151795000Y-70655000D02*
X150695000Y-71755000D01*
X150695000Y-83620000D02*
X149352000Y-84963000D01*
X149352000Y-84963000D02*
X149352000Y-93599000D01*
%TO.N,D1*%
X146812000Y-101219000D02*
X147955000Y-100076000D01*
X147955000Y-100076000D02*
X147955000Y-84709000D01*
X149255000Y-83409000D02*
X149255000Y-80195000D01*
X147955000Y-84709000D02*
X149255000Y-83409000D01*
%TO.N,D2*%
X150452000Y-100119000D02*
X149352000Y-101219000D01*
%TO.N,5v*%
X123855000Y-80195000D02*
X123855000Y-93502000D01*
X123855000Y-93502000D02*
X123952000Y-93599000D01*
%TO.N,A7*%
X126395000Y-80195000D02*
X125392000Y-81198000D01*
X125392000Y-81198000D02*
X125392000Y-99779000D01*
X125392000Y-99779000D02*
X123952000Y-101219000D01*
%TO.N,A4*%
X133012000Y-99779000D02*
X131572000Y-101219000D01*
%TO.N,A3*%
X136555000Y-80195000D02*
X135552000Y-81198000D01*
X135552000Y-81198000D02*
X135552000Y-99779000D01*
X135552000Y-99779000D02*
X134112000Y-101219000D01*
%TO.N,A1*%
X140632000Y-99779000D02*
X139192000Y-101219000D01*
%TO.N,GND*%
X154335000Y-90267000D02*
X153035000Y-91567000D01*
X154335000Y-80195000D02*
X154335000Y-90267000D01*
X153035000Y-91567000D02*
X153035000Y-100076000D01*
X153035000Y-100076000D02*
X151892000Y-101219000D01*
%TD*%
%TA.AperFunction,Conductor*%
%TO.N,GND*%
G36*
X156922539Y-63385185D02*
G01*
X156968294Y-63437989D01*
X156979500Y-63489500D01*
X156979500Y-81656324D01*
X156959815Y-81723363D01*
X156943181Y-81744005D01*
X155174502Y-83512683D01*
X155174500Y-83512686D01*
X155108608Y-83626812D01*
X155074500Y-83754108D01*
X155074500Y-102880500D01*
X155054815Y-102947539D01*
X155002011Y-102993294D01*
X154950500Y-103004500D01*
X152552797Y-103004500D01*
X152485758Y-102984815D01*
X152440003Y-102932011D01*
X152430059Y-102862853D01*
X152459084Y-102799297D01*
X152496503Y-102770015D01*
X152573347Y-102730861D01*
X152738894Y-102610582D01*
X152738895Y-102610582D01*
X152883582Y-102465895D01*
X152883582Y-102465894D01*
X153003859Y-102300349D01*
X153096755Y-102118031D01*
X153159990Y-101923417D01*
X153192000Y-101721317D01*
X153192000Y-101469000D01*
X152492001Y-101469000D01*
X152517021Y-101408598D01*
X152542000Y-101283019D01*
X152542000Y-101154981D01*
X152517021Y-101029402D01*
X152492001Y-100969000D01*
X153192000Y-100969000D01*
X153192000Y-100716682D01*
X153159990Y-100514582D01*
X153096755Y-100319968D01*
X153003859Y-100137650D01*
X152883582Y-99972105D01*
X152883582Y-99972104D01*
X152738895Y-99827417D01*
X152573349Y-99707140D01*
X152391029Y-99614244D01*
X152196413Y-99551009D01*
X152142000Y-99542390D01*
X152142000Y-100618998D01*
X152081598Y-100593979D01*
X151956019Y-100569000D01*
X151827981Y-100569000D01*
X151702402Y-100593979D01*
X151642000Y-100618998D01*
X151642000Y-99542390D01*
X151587586Y-99551009D01*
X151392967Y-99614245D01*
X151232794Y-99695857D01*
X151164125Y-99708753D01*
X151099385Y-99682476D01*
X151059128Y-99625370D01*
X151052500Y-99585372D01*
X151052500Y-95233187D01*
X151072185Y-95166148D01*
X151124989Y-95120393D01*
X151194147Y-95110449D01*
X151232795Y-95122703D01*
X151392771Y-95204216D01*
X151392776Y-95204217D01*
X151392781Y-95204220D01*
X151511817Y-95242897D01*
X151587465Y-95267477D01*
X151647471Y-95276981D01*
X151789648Y-95299500D01*
X151789649Y-95299500D01*
X151994351Y-95299500D01*
X151994352Y-95299500D01*
X152196534Y-95267477D01*
X152391219Y-95204220D01*
X152573610Y-95111287D01*
X152666590Y-95043732D01*
X152739213Y-94990971D01*
X152739215Y-94990968D01*
X152739219Y-94990966D01*
X152883966Y-94846219D01*
X152883968Y-94846215D01*
X152883971Y-94846213D01*
X152936732Y-94773590D01*
X153004287Y-94680610D01*
X153097220Y-94498219D01*
X153160477Y-94303534D01*
X153192500Y-94101352D01*
X153192500Y-93096648D01*
X153173071Y-92973979D01*
X153160477Y-92894465D01*
X153097218Y-92699776D01*
X153063503Y-92633607D01*
X153004287Y-92517390D01*
X152996556Y-92506749D01*
X152883971Y-92351786D01*
X152739213Y-92207028D01*
X152573610Y-92086712D01*
X152560200Y-92079879D01*
X152509406Y-92031903D01*
X152492500Y-91969397D01*
X152492500Y-87168096D01*
X152512185Y-87101057D01*
X152528814Y-87080419D01*
X153593506Y-86015727D01*
X153593511Y-86015724D01*
X153603714Y-86005520D01*
X153603716Y-86005520D01*
X153715520Y-85893716D01*
X153747964Y-85837521D01*
X153769382Y-85800424D01*
X153794575Y-85756788D01*
X153794574Y-85756788D01*
X153794577Y-85756785D01*
X153835501Y-85604057D01*
X153835501Y-85445943D01*
X153835501Y-85438348D01*
X153835500Y-85438330D01*
X153835500Y-81970275D01*
X153855185Y-81903236D01*
X153907989Y-81857481D01*
X153977147Y-81847537D01*
X153997819Y-81852344D01*
X154030578Y-81862988D01*
X154085000Y-81871607D01*
X154085000Y-80510686D01*
X154089394Y-80515080D01*
X154180606Y-80567741D01*
X154282339Y-80595000D01*
X154387661Y-80595000D01*
X154489394Y-80567741D01*
X154580606Y-80515080D01*
X154585000Y-80510686D01*
X154585000Y-81871606D01*
X154639421Y-81862988D01*
X154834031Y-81799754D01*
X155016349Y-81706859D01*
X155181894Y-81586582D01*
X155181895Y-81586582D01*
X155326582Y-81441895D01*
X155326582Y-81441894D01*
X155446859Y-81276349D01*
X155539755Y-81094031D01*
X155602990Y-80899417D01*
X155635000Y-80697317D01*
X155635000Y-80445000D01*
X154650686Y-80445000D01*
X154655080Y-80440606D01*
X154707741Y-80349394D01*
X154735000Y-80247661D01*
X154735000Y-80142339D01*
X154707741Y-80040606D01*
X154655080Y-79949394D01*
X154650686Y-79945000D01*
X155635000Y-79945000D01*
X155635000Y-79692682D01*
X155602990Y-79490582D01*
X155539755Y-79295968D01*
X155446859Y-79113650D01*
X155326582Y-78948105D01*
X155326582Y-78948104D01*
X155181895Y-78803417D01*
X155016349Y-78683140D01*
X154834029Y-78590244D01*
X154639413Y-78527009D01*
X154585000Y-78518390D01*
X154585000Y-79879314D01*
X154580606Y-79874920D01*
X154489394Y-79822259D01*
X154387661Y-79795000D01*
X154282339Y-79795000D01*
X154180606Y-79822259D01*
X154089394Y-79874920D01*
X154085000Y-79879314D01*
X154085000Y-78518390D01*
X154030586Y-78527009D01*
X154030581Y-78527010D01*
X153997817Y-78537656D01*
X153927976Y-78539651D01*
X153868143Y-78503570D01*
X153837316Y-78440869D01*
X153835500Y-78419725D01*
X153835500Y-69261096D01*
X153855185Y-69194057D01*
X153871815Y-69173419D01*
X154703713Y-68341521D01*
X154703716Y-68341520D01*
X154815520Y-68229716D01*
X154865639Y-68142904D01*
X154894577Y-68092785D01*
X154935501Y-67940057D01*
X154935501Y-67781943D01*
X154935501Y-67774348D01*
X154935500Y-67774330D01*
X154935500Y-66584601D01*
X154955185Y-66517562D01*
X155003206Y-66474116D01*
X155016610Y-66467287D01*
X155182219Y-66346966D01*
X155326966Y-66202219D01*
X155326968Y-66202215D01*
X155326971Y-66202213D01*
X155379732Y-66129590D01*
X155447287Y-66036610D01*
X155540220Y-65854219D01*
X155603477Y-65659534D01*
X155635500Y-65457352D01*
X155635500Y-64452648D01*
X155603477Y-64250466D01*
X155540220Y-64055781D01*
X155540218Y-64055778D01*
X155540218Y-64055776D01*
X155447419Y-63873650D01*
X155447287Y-63873390D01*
X155439556Y-63862749D01*
X155326971Y-63707786D01*
X155196366Y-63577181D01*
X155162881Y-63515858D01*
X155167865Y-63446166D01*
X155209737Y-63390233D01*
X155275201Y-63365816D01*
X155284047Y-63365500D01*
X156855500Y-63365500D01*
X156922539Y-63385185D01*
G37*
%TD.AperFunction*%
%TA.AperFunction,Conductor*%
G36*
X148735792Y-95144611D02*
G01*
X148778061Y-95166148D01*
X148852776Y-95204218D01*
X148852778Y-95204218D01*
X148852781Y-95204220D01*
X148940209Y-95232627D01*
X149047465Y-95267477D01*
X149107471Y-95276981D01*
X149249648Y-95299500D01*
X149249649Y-95299500D01*
X149454351Y-95299500D01*
X149454352Y-95299500D01*
X149656534Y-95267477D01*
X149656539Y-95267475D01*
X149656541Y-95267475D01*
X149689180Y-95256870D01*
X149759021Y-95254873D01*
X149818855Y-95290953D01*
X149849684Y-95353653D01*
X149851500Y-95374800D01*
X149851500Y-99443199D01*
X149831815Y-99510238D01*
X149779011Y-99555993D01*
X149709853Y-99565937D01*
X149689183Y-99561130D01*
X149656542Y-99550524D01*
X149656535Y-99550523D01*
X149528626Y-99530264D01*
X149454352Y-99518500D01*
X149249648Y-99518500D01*
X149225329Y-99522351D01*
X149047465Y-99550522D01*
X148895759Y-99599815D01*
X148852781Y-99613780D01*
X148852778Y-99613781D01*
X148852776Y-99613782D01*
X148735795Y-99673387D01*
X148667125Y-99686283D01*
X148602385Y-99660007D01*
X148562128Y-99602900D01*
X148555500Y-99562902D01*
X148555500Y-95255097D01*
X148575185Y-95188058D01*
X148627989Y-95142303D01*
X148697147Y-95132359D01*
X148735792Y-95144611D01*
G37*
%TD.AperFunction*%
%TA.AperFunction,Conductor*%
G36*
X127284614Y-95136082D02*
G01*
X127324872Y-95193188D01*
X127331500Y-95233187D01*
X127331500Y-99478901D01*
X127311815Y-99545940D01*
X127295181Y-99566583D01*
X127225019Y-99636744D01*
X127163695Y-99670228D01*
X127094004Y-99665243D01*
X127081044Y-99659547D01*
X126991226Y-99613782D01*
X126796534Y-99550522D01*
X126621995Y-99522878D01*
X126594352Y-99518500D01*
X126389648Y-99518500D01*
X126349184Y-99524909D01*
X126187464Y-99550523D01*
X126187457Y-99550524D01*
X126154817Y-99561130D01*
X126084976Y-99563125D01*
X126025143Y-99527044D01*
X125994316Y-99464343D01*
X125992500Y-99443199D01*
X125992500Y-95374800D01*
X126012185Y-95307761D01*
X126064989Y-95262006D01*
X126134147Y-95252062D01*
X126154820Y-95256870D01*
X126187458Y-95267475D01*
X126187461Y-95267475D01*
X126187466Y-95267477D01*
X126389648Y-95299500D01*
X126389649Y-95299500D01*
X126594351Y-95299500D01*
X126594352Y-95299500D01*
X126796534Y-95267477D01*
X126991219Y-95204220D01*
X126991224Y-95204217D01*
X126991228Y-95204216D01*
X127151205Y-95122703D01*
X127219874Y-95109806D01*
X127284614Y-95136082D01*
G37*
%TD.AperFunction*%
%TA.AperFunction,Conductor*%
G36*
X129824614Y-95136082D02*
G01*
X129864872Y-95193188D01*
X129871500Y-95233187D01*
X129871500Y-99478901D01*
X129851815Y-99545940D01*
X129835181Y-99566583D01*
X129765019Y-99636744D01*
X129703695Y-99670228D01*
X129634004Y-99665243D01*
X129621044Y-99659547D01*
X129531226Y-99613782D01*
X129336534Y-99550522D01*
X129161995Y-99522878D01*
X129134352Y-99518500D01*
X128929648Y-99518500D01*
X128889184Y-99524909D01*
X128727464Y-99550523D01*
X128727457Y-99550524D01*
X128694817Y-99561130D01*
X128624976Y-99563125D01*
X128565143Y-99527044D01*
X128534316Y-99464343D01*
X128532500Y-99443199D01*
X128532500Y-95374800D01*
X128552185Y-95307761D01*
X128604989Y-95262006D01*
X128674147Y-95252062D01*
X128694820Y-95256870D01*
X128727458Y-95267475D01*
X128727461Y-95267475D01*
X128727466Y-95267477D01*
X128929648Y-95299500D01*
X128929649Y-95299500D01*
X129134351Y-95299500D01*
X129134352Y-95299500D01*
X129336534Y-95267477D01*
X129531219Y-95204220D01*
X129531224Y-95204217D01*
X129531228Y-95204216D01*
X129691205Y-95122703D01*
X129759874Y-95109806D01*
X129824614Y-95136082D01*
G37*
%TD.AperFunction*%
%TA.AperFunction,Conductor*%
G36*
X132364614Y-95136082D02*
G01*
X132404872Y-95193188D01*
X132411500Y-95233187D01*
X132411500Y-99478901D01*
X132391815Y-99545940D01*
X132375181Y-99566583D01*
X132305019Y-99636744D01*
X132243695Y-99670228D01*
X132174004Y-99665243D01*
X132161044Y-99659547D01*
X132071226Y-99613782D01*
X131876534Y-99550522D01*
X131701995Y-99522878D01*
X131674352Y-99518500D01*
X131469648Y-99518500D01*
X131429184Y-99524909D01*
X131267464Y-99550523D01*
X131267457Y-99550524D01*
X131234817Y-99561130D01*
X131164976Y-99563125D01*
X131105143Y-99527044D01*
X131074316Y-99464343D01*
X131072500Y-99443199D01*
X131072500Y-95374800D01*
X131092185Y-95307761D01*
X131144989Y-95262006D01*
X131214147Y-95252062D01*
X131234820Y-95256870D01*
X131267458Y-95267475D01*
X131267461Y-95267475D01*
X131267466Y-95267477D01*
X131469648Y-95299500D01*
X131469649Y-95299500D01*
X131674351Y-95299500D01*
X131674352Y-95299500D01*
X131876534Y-95267477D01*
X132071219Y-95204220D01*
X132071224Y-95204217D01*
X132071228Y-95204216D01*
X132231205Y-95122703D01*
X132299874Y-95109806D01*
X132364614Y-95136082D01*
G37*
%TD.AperFunction*%
%TA.AperFunction,Conductor*%
G36*
X134362000Y-95275606D02*
G01*
X134416421Y-95266988D01*
X134611031Y-95203755D01*
X134771205Y-95122142D01*
X134839874Y-95109246D01*
X134904615Y-95135522D01*
X134944872Y-95192629D01*
X134951500Y-95232627D01*
X134951500Y-99478901D01*
X134931815Y-99545940D01*
X134915181Y-99566583D01*
X134845019Y-99636744D01*
X134783695Y-99670228D01*
X134714004Y-99665243D01*
X134701044Y-99659547D01*
X134611226Y-99613782D01*
X134416534Y-99550522D01*
X134241995Y-99522878D01*
X134214352Y-99518500D01*
X134009648Y-99518500D01*
X133969184Y-99524909D01*
X133807464Y-99550523D01*
X133807457Y-99550524D01*
X133774817Y-99561130D01*
X133704976Y-99563125D01*
X133645143Y-99527044D01*
X133614316Y-99464343D01*
X133612500Y-99443199D01*
X133612500Y-95374275D01*
X133632185Y-95307236D01*
X133684989Y-95261481D01*
X133754147Y-95251537D01*
X133774819Y-95256344D01*
X133807578Y-95266988D01*
X133862000Y-95275607D01*
X133862000Y-94199001D01*
X133922402Y-94224021D01*
X134047981Y-94249000D01*
X134176019Y-94249000D01*
X134301598Y-94224021D01*
X134362000Y-94199001D01*
X134362000Y-95275606D01*
G37*
%TD.AperFunction*%
%TA.AperFunction,Conductor*%
G36*
X137444614Y-95136082D02*
G01*
X137484872Y-95193188D01*
X137491500Y-95233187D01*
X137491500Y-99478901D01*
X137471815Y-99545940D01*
X137455181Y-99566583D01*
X137385019Y-99636744D01*
X137323695Y-99670228D01*
X137254004Y-99665243D01*
X137241044Y-99659547D01*
X137151226Y-99613782D01*
X136956534Y-99550522D01*
X136781995Y-99522878D01*
X136754352Y-99518500D01*
X136549648Y-99518500D01*
X136509184Y-99524909D01*
X136347464Y-99550523D01*
X136347457Y-99550524D01*
X136314817Y-99561130D01*
X136244976Y-99563125D01*
X136185143Y-99527044D01*
X136154316Y-99464343D01*
X136152500Y-99443199D01*
X136152500Y-95374800D01*
X136172185Y-95307761D01*
X136224989Y-95262006D01*
X136294147Y-95252062D01*
X136314820Y-95256870D01*
X136347458Y-95267475D01*
X136347461Y-95267475D01*
X136347466Y-95267477D01*
X136549648Y-95299500D01*
X136549649Y-95299500D01*
X136754351Y-95299500D01*
X136754352Y-95299500D01*
X136956534Y-95267477D01*
X137151219Y-95204220D01*
X137151224Y-95204217D01*
X137151228Y-95204216D01*
X137311205Y-95122703D01*
X137379874Y-95109806D01*
X137444614Y-95136082D01*
G37*
%TD.AperFunction*%
%TA.AperFunction,Conductor*%
G36*
X139984614Y-95136082D02*
G01*
X140024872Y-95193188D01*
X140031500Y-95233187D01*
X140031500Y-99478901D01*
X140011815Y-99545940D01*
X139995181Y-99566583D01*
X139925019Y-99636744D01*
X139863695Y-99670228D01*
X139794004Y-99665243D01*
X139781044Y-99659547D01*
X139691226Y-99613782D01*
X139496534Y-99550522D01*
X139321995Y-99522878D01*
X139294352Y-99518500D01*
X139089648Y-99518500D01*
X139049184Y-99524909D01*
X138887464Y-99550523D01*
X138887457Y-99550524D01*
X138854817Y-99561130D01*
X138784976Y-99563125D01*
X138725143Y-99527044D01*
X138694316Y-99464343D01*
X138692500Y-99443199D01*
X138692500Y-95374800D01*
X138712185Y-95307761D01*
X138764989Y-95262006D01*
X138834147Y-95252062D01*
X138854820Y-95256870D01*
X138887458Y-95267475D01*
X138887461Y-95267475D01*
X138887466Y-95267477D01*
X139089648Y-95299500D01*
X139089649Y-95299500D01*
X139294351Y-95299500D01*
X139294352Y-95299500D01*
X139496534Y-95267477D01*
X139691219Y-95204220D01*
X139691224Y-95204217D01*
X139691228Y-95204216D01*
X139851205Y-95122703D01*
X139919874Y-95109806D01*
X139984614Y-95136082D01*
G37*
%TD.AperFunction*%
%TA.AperFunction,Conductor*%
G36*
X142524614Y-95136082D02*
G01*
X142564872Y-95193188D01*
X142571500Y-95233187D01*
X142571500Y-99478901D01*
X142551815Y-99545940D01*
X142535181Y-99566583D01*
X142465019Y-99636744D01*
X142403695Y-99670228D01*
X142334004Y-99665243D01*
X142321044Y-99659547D01*
X142231226Y-99613782D01*
X142036534Y-99550522D01*
X141861995Y-99522878D01*
X141834352Y-99518500D01*
X141629648Y-99518500D01*
X141589184Y-99524909D01*
X141427464Y-99550523D01*
X141427457Y-99550524D01*
X141394817Y-99561130D01*
X141324976Y-99563125D01*
X141265143Y-99527044D01*
X141234316Y-99464343D01*
X141232500Y-99443199D01*
X141232500Y-95374800D01*
X141252185Y-95307761D01*
X141304989Y-95262006D01*
X141374147Y-95252062D01*
X141394820Y-95256870D01*
X141427458Y-95267475D01*
X141427461Y-95267475D01*
X141427466Y-95267477D01*
X141629648Y-95299500D01*
X141629649Y-95299500D01*
X141834351Y-95299500D01*
X141834352Y-95299500D01*
X142036534Y-95267477D01*
X142231219Y-95204220D01*
X142231224Y-95204217D01*
X142231228Y-95204216D01*
X142391205Y-95122703D01*
X142459874Y-95109806D01*
X142524614Y-95136082D01*
G37*
%TD.AperFunction*%
%TA.AperFunction,Conductor*%
G36*
X145064614Y-95136082D02*
G01*
X145104872Y-95193188D01*
X145111500Y-95233187D01*
X145111500Y-99478901D01*
X145091815Y-99545940D01*
X145075181Y-99566583D01*
X145005019Y-99636744D01*
X144943695Y-99670228D01*
X144874004Y-99665243D01*
X144861044Y-99659547D01*
X144771226Y-99613782D01*
X144576534Y-99550522D01*
X144401995Y-99522878D01*
X144374352Y-99518500D01*
X144169648Y-99518500D01*
X144129184Y-99524909D01*
X143967464Y-99550523D01*
X143967457Y-99550524D01*
X143934817Y-99561130D01*
X143864976Y-99563125D01*
X143805143Y-99527044D01*
X143774316Y-99464343D01*
X143772500Y-99443199D01*
X143772500Y-95374800D01*
X143792185Y-95307761D01*
X143844989Y-95262006D01*
X143914147Y-95252062D01*
X143934820Y-95256870D01*
X143967458Y-95267475D01*
X143967461Y-95267475D01*
X143967466Y-95267477D01*
X144169648Y-95299500D01*
X144169649Y-95299500D01*
X144374351Y-95299500D01*
X144374352Y-95299500D01*
X144576534Y-95267477D01*
X144771219Y-95204220D01*
X144771224Y-95204217D01*
X144771228Y-95204216D01*
X144931205Y-95122703D01*
X144999874Y-95109806D01*
X145064614Y-95136082D01*
G37*
%TD.AperFunction*%
%TA.AperFunction,Conductor*%
G36*
X147321855Y-95276981D02*
G01*
X147352684Y-95339682D01*
X147354500Y-95360828D01*
X147354500Y-99457170D01*
X147334815Y-99524209D01*
X147282011Y-99569964D01*
X147212853Y-99579908D01*
X147192183Y-99575101D01*
X147116542Y-99550524D01*
X147116535Y-99550523D01*
X146988626Y-99530264D01*
X146914352Y-99518500D01*
X146709648Y-99518500D01*
X146669184Y-99524909D01*
X146507464Y-99550523D01*
X146507457Y-99550524D01*
X146474817Y-99561130D01*
X146404976Y-99563125D01*
X146345143Y-99527044D01*
X146314316Y-99464343D01*
X146312500Y-99443199D01*
X146312500Y-95374800D01*
X146332185Y-95307761D01*
X146384989Y-95262006D01*
X146454147Y-95252062D01*
X146474820Y-95256870D01*
X146507458Y-95267475D01*
X146507461Y-95267475D01*
X146507466Y-95267477D01*
X146709648Y-95299500D01*
X146709649Y-95299500D01*
X146914351Y-95299500D01*
X146914352Y-95299500D01*
X147116534Y-95267477D01*
X147192183Y-95242896D01*
X147262022Y-95240901D01*
X147321855Y-95276981D01*
G37*
%TD.AperFunction*%
%TA.AperFunction,Conductor*%
G36*
X134888475Y-81657490D02*
G01*
X134937170Y-81707595D01*
X134951500Y-81765462D01*
X134951500Y-91965372D01*
X134931815Y-92032411D01*
X134879011Y-92078166D01*
X134809853Y-92088110D01*
X134771206Y-92075857D01*
X134611032Y-91994245D01*
X134416413Y-91931009D01*
X134362000Y-91922390D01*
X134362000Y-92998998D01*
X134301598Y-92973979D01*
X134176019Y-92949000D01*
X134047981Y-92949000D01*
X133922402Y-92973979D01*
X133862000Y-92998998D01*
X133862000Y-91922390D01*
X133807586Y-91931009D01*
X133807581Y-91931010D01*
X133774817Y-91941656D01*
X133704976Y-91943651D01*
X133645143Y-91907570D01*
X133614316Y-91844869D01*
X133612500Y-91823725D01*
X133612500Y-85644096D01*
X133632185Y-85577057D01*
X133648815Y-85556419D01*
X134373506Y-84831727D01*
X134373511Y-84831724D01*
X134383714Y-84821520D01*
X134383716Y-84821520D01*
X134495520Y-84709716D01*
X134562164Y-84594284D01*
X134574577Y-84572785D01*
X134615500Y-84420058D01*
X134615500Y-84261943D01*
X134615500Y-81824601D01*
X134635185Y-81757562D01*
X134683206Y-81714116D01*
X134696610Y-81707287D01*
X134754615Y-81665143D01*
X134820421Y-81641664D01*
X134888475Y-81657490D01*
G37*
%TD.AperFunction*%
%TA.AperFunction,Conductor*%
G36*
X127736445Y-65898865D02*
G01*
X127775485Y-65943919D01*
X127822715Y-66036614D01*
X127943028Y-66202213D01*
X127943034Y-66202219D01*
X128087781Y-66346966D01*
X128253390Y-66467287D01*
X128266793Y-66474116D01*
X128317589Y-66522088D01*
X128334500Y-66584601D01*
X128334500Y-67102653D01*
X128330275Y-67134746D01*
X128304499Y-67230943D01*
X128304499Y-67399046D01*
X128304500Y-67399059D01*
X128304500Y-67644902D01*
X128284815Y-67711941D01*
X128268181Y-67732583D01*
X127354481Y-68646282D01*
X127354475Y-68646290D01*
X127306600Y-68729214D01*
X127306600Y-68729215D01*
X127275423Y-68783215D01*
X127234499Y-68935943D01*
X127234499Y-68935945D01*
X127234499Y-69104046D01*
X127234500Y-69104059D01*
X127234500Y-78560812D01*
X127214815Y-78627851D01*
X127162011Y-78673606D01*
X127092853Y-78683550D01*
X127054205Y-78671297D01*
X126894223Y-78589781D01*
X126699534Y-78526522D01*
X126524995Y-78498878D01*
X126497352Y-78494500D01*
X126292648Y-78494500D01*
X126268329Y-78498351D01*
X126090465Y-78526522D01*
X125895776Y-78589781D01*
X125713386Y-78682715D01*
X125547786Y-78803028D01*
X125403028Y-78947786D01*
X125282715Y-79113386D01*
X125235485Y-79206080D01*
X125187510Y-79256876D01*
X125119689Y-79273671D01*
X125053554Y-79251134D01*
X125014515Y-79206080D01*
X124967419Y-79113650D01*
X124967287Y-79113390D01*
X124959556Y-79102749D01*
X124846971Y-78947786D01*
X124702213Y-78803028D01*
X124536613Y-78682715D01*
X124536612Y-78682714D01*
X124536610Y-78682713D01*
X124469567Y-78648553D01*
X124354223Y-78589781D01*
X124159534Y-78526522D01*
X123984995Y-78498878D01*
X123957352Y-78494500D01*
X123752648Y-78494500D01*
X123728329Y-78498351D01*
X123550465Y-78526522D01*
X123355776Y-78589781D01*
X123173386Y-78682715D01*
X123007786Y-78803028D01*
X122863032Y-78947782D01*
X122836668Y-78984070D01*
X122781338Y-79026735D01*
X122711724Y-79032714D01*
X122649929Y-79000108D01*
X122615572Y-78939269D01*
X122613060Y-78924438D01*
X122612640Y-78920533D01*
X122609091Y-78887517D01*
X122558796Y-78752669D01*
X122558795Y-78752668D01*
X122558793Y-78752664D01*
X122472547Y-78637455D01*
X122472544Y-78637452D01*
X122357335Y-78551206D01*
X122357328Y-78551202D01*
X122222482Y-78500908D01*
X122222483Y-78500908D01*
X122162883Y-78494501D01*
X122162881Y-78494500D01*
X122162873Y-78494500D01*
X122162865Y-78494500D01*
X122039500Y-78494500D01*
X121972461Y-78474815D01*
X121926706Y-78422011D01*
X121915500Y-78370500D01*
X121915500Y-66704097D01*
X121935185Y-66637058D01*
X121987989Y-66591303D01*
X122057147Y-66581359D01*
X122120703Y-66610384D01*
X122127181Y-66616416D01*
X122330139Y-66819374D01*
X122330149Y-66819385D01*
X122334479Y-66823715D01*
X122334480Y-66823716D01*
X122446284Y-66935520D01*
X122446286Y-66935521D01*
X122446290Y-66935524D01*
X122583209Y-67014573D01*
X122583216Y-67014577D01*
X122695019Y-67044534D01*
X122735942Y-67055500D01*
X122735943Y-67055500D01*
X124808331Y-67055500D01*
X124808347Y-67055501D01*
X124815943Y-67055501D01*
X124974054Y-67055501D01*
X124974057Y-67055501D01*
X125126785Y-67014577D01*
X125176904Y-66985639D01*
X125263716Y-66935520D01*
X125375520Y-66823716D01*
X125375520Y-66823714D01*
X125385728Y-66813507D01*
X125385730Y-66813504D01*
X125661980Y-66537253D01*
X125723301Y-66503770D01*
X125792993Y-66508754D01*
X125805954Y-66514451D01*
X125895776Y-66560218D01*
X125895778Y-66560218D01*
X125895781Y-66560220D01*
X125969538Y-66584185D01*
X126090465Y-66623477D01*
X126176212Y-66637058D01*
X126292648Y-66655500D01*
X126292649Y-66655500D01*
X126497351Y-66655500D01*
X126497352Y-66655500D01*
X126699534Y-66623477D01*
X126894219Y-66560220D01*
X127076610Y-66467287D01*
X127169590Y-66399732D01*
X127242213Y-66346971D01*
X127242215Y-66346968D01*
X127242219Y-66346966D01*
X127386966Y-66202219D01*
X127386968Y-66202215D01*
X127386971Y-66202213D01*
X127507284Y-66036614D01*
X127507285Y-66036613D01*
X127507287Y-66036610D01*
X127554516Y-65943917D01*
X127602489Y-65893123D01*
X127670310Y-65876328D01*
X127736445Y-65898865D01*
G37*
%TD.AperFunction*%
%TA.AperFunction,Conductor*%
G36*
X136805000Y-66631606D02*
G01*
X136859421Y-66622988D01*
X137054031Y-66559755D01*
X137214205Y-66478142D01*
X137282874Y-66465246D01*
X137347615Y-66491522D01*
X137387872Y-66548629D01*
X137394500Y-66588627D01*
X137394500Y-78560812D01*
X137374815Y-78627851D01*
X137322011Y-78673606D01*
X137252853Y-78683550D01*
X137214205Y-78671297D01*
X137054223Y-78589781D01*
X136859534Y-78526522D01*
X136684995Y-78498878D01*
X136657352Y-78494500D01*
X136452648Y-78494500D01*
X136428329Y-78498351D01*
X136250465Y-78526522D01*
X136055776Y-78589781D01*
X135873386Y-78682715D01*
X135707786Y-78803028D01*
X135563028Y-78947786D01*
X135442715Y-79113386D01*
X135395485Y-79206080D01*
X135347510Y-79256876D01*
X135279689Y-79273671D01*
X135213554Y-79251134D01*
X135174515Y-79206080D01*
X135127419Y-79113650D01*
X135127287Y-79113390D01*
X135119556Y-79102749D01*
X135006971Y-78947786D01*
X134862213Y-78803028D01*
X134696613Y-78682715D01*
X134696612Y-78682714D01*
X134696610Y-78682713D01*
X134629567Y-78648553D01*
X134514223Y-78589781D01*
X134319534Y-78526522D01*
X134144995Y-78498878D01*
X134117352Y-78494500D01*
X133912648Y-78494500D01*
X133888329Y-78498351D01*
X133710465Y-78526522D01*
X133515776Y-78589781D01*
X133333386Y-78682715D01*
X133167786Y-78803028D01*
X133023028Y-78947786D01*
X132902715Y-79113386D01*
X132855485Y-79206080D01*
X132807510Y-79256876D01*
X132739689Y-79273671D01*
X132673554Y-79251134D01*
X132634515Y-79206080D01*
X132587419Y-79113650D01*
X132587287Y-79113390D01*
X132579556Y-79102749D01*
X132466971Y-78947786D01*
X132322213Y-78803028D01*
X132156613Y-78682715D01*
X132156612Y-78682714D01*
X132156610Y-78682713D01*
X132089567Y-78648553D01*
X131974223Y-78589781D01*
X131779534Y-78526522D01*
X131604995Y-78498878D01*
X131577352Y-78494500D01*
X131372648Y-78494500D01*
X131348329Y-78498351D01*
X131170465Y-78526522D01*
X130975776Y-78589781D01*
X130815795Y-78671297D01*
X130747126Y-78684193D01*
X130682385Y-78657917D01*
X130642128Y-78600810D01*
X130635500Y-78560812D01*
X130635500Y-66695097D01*
X130655185Y-66628058D01*
X130671813Y-66607421D01*
X130741982Y-66537252D01*
X130803301Y-66503770D01*
X130872993Y-66508754D01*
X130885951Y-66514449D01*
X130900943Y-66522088D01*
X130975776Y-66560218D01*
X130975778Y-66560218D01*
X130975781Y-66560220D01*
X131049538Y-66584185D01*
X131170465Y-66623477D01*
X131256212Y-66637058D01*
X131372648Y-66655500D01*
X131372649Y-66655500D01*
X131577351Y-66655500D01*
X131577352Y-66655500D01*
X131779534Y-66623477D01*
X131974219Y-66560220D01*
X132156610Y-66467287D01*
X132249590Y-66399732D01*
X132322213Y-66346971D01*
X132322215Y-66346968D01*
X132322219Y-66346966D01*
X132466966Y-66202219D01*
X132466968Y-66202215D01*
X132466971Y-66202213D01*
X132587284Y-66036614D01*
X132587285Y-66036613D01*
X132587287Y-66036610D01*
X132634516Y-65943917D01*
X132682489Y-65893123D01*
X132750310Y-65876328D01*
X132816445Y-65898865D01*
X132855485Y-65943919D01*
X132902715Y-66036614D01*
X133023028Y-66202213D01*
X133167786Y-66346971D01*
X133322749Y-66459556D01*
X133333390Y-66467287D01*
X133432060Y-66517562D01*
X133515776Y-66560218D01*
X133515778Y-66560218D01*
X133515781Y-66560220D01*
X133589538Y-66584185D01*
X133710465Y-66623477D01*
X133796212Y-66637058D01*
X133912648Y-66655500D01*
X133912649Y-66655500D01*
X134117351Y-66655500D01*
X134117352Y-66655500D01*
X134319534Y-66623477D01*
X134514219Y-66560220D01*
X134696610Y-66467287D01*
X134789590Y-66399732D01*
X134862213Y-66346971D01*
X134862215Y-66346968D01*
X134862219Y-66346966D01*
X135006966Y-66202219D01*
X135006968Y-66202215D01*
X135006971Y-66202213D01*
X135127284Y-66036614D01*
X135127285Y-66036613D01*
X135127287Y-66036610D01*
X135174795Y-65943369D01*
X135222770Y-65892574D01*
X135290591Y-65875779D01*
X135356725Y-65898316D01*
X135395765Y-65943370D01*
X135443140Y-66036349D01*
X135563417Y-66201894D01*
X135563417Y-66201895D01*
X135708104Y-66346582D01*
X135873650Y-66466859D01*
X136055968Y-66559754D01*
X136250578Y-66622988D01*
X136305000Y-66631607D01*
X136305000Y-65270686D01*
X136309394Y-65275080D01*
X136400606Y-65327741D01*
X136502339Y-65355000D01*
X136607661Y-65355000D01*
X136709394Y-65327741D01*
X136800606Y-65275080D01*
X136805000Y-65270686D01*
X136805000Y-66631606D01*
G37*
%TD.AperFunction*%
%TA.AperFunction,Conductor*%
G36*
X142358929Y-66527079D02*
G01*
X142399187Y-66584185D01*
X142405815Y-66624184D01*
X142405815Y-78525815D01*
X142386130Y-78592854D01*
X142333326Y-78638609D01*
X142264168Y-78648553D01*
X142225520Y-78636300D01*
X142134223Y-78589781D01*
X141939534Y-78526522D01*
X141764995Y-78498878D01*
X141737352Y-78494500D01*
X141532648Y-78494500D01*
X141508329Y-78498351D01*
X141330465Y-78526522D01*
X141135776Y-78589781D01*
X140975795Y-78671297D01*
X140907126Y-78684193D01*
X140842385Y-78657917D01*
X140802128Y-78600810D01*
X140795500Y-78560812D01*
X140795500Y-66695097D01*
X140815185Y-66628058D01*
X140831813Y-66607421D01*
X140901982Y-66537252D01*
X140963301Y-66503770D01*
X141032993Y-66508754D01*
X141045951Y-66514449D01*
X141060943Y-66522088D01*
X141135776Y-66560218D01*
X141135778Y-66560218D01*
X141135781Y-66560220D01*
X141209538Y-66584185D01*
X141330465Y-66623477D01*
X141416212Y-66637058D01*
X141532648Y-66655500D01*
X141532649Y-66655500D01*
X141737351Y-66655500D01*
X141737352Y-66655500D01*
X141939534Y-66623477D01*
X142134219Y-66560220D01*
X142225519Y-66513699D01*
X142294188Y-66500803D01*
X142358929Y-66527079D01*
G37*
%TD.AperFunction*%
%TA.AperFunction,Conductor*%
G36*
X150596445Y-65898865D02*
G01*
X150635485Y-65943919D01*
X150682715Y-66036614D01*
X150803028Y-66202213D01*
X150803034Y-66202219D01*
X150947781Y-66346966D01*
X151113390Y-66467287D01*
X151126793Y-66474116D01*
X151177589Y-66522088D01*
X151194500Y-66584601D01*
X151194500Y-70354902D01*
X151174815Y-70421941D01*
X151158181Y-70442583D01*
X150214481Y-71386282D01*
X150214479Y-71386285D01*
X150164361Y-71473094D01*
X150164359Y-71473096D01*
X150135425Y-71523209D01*
X150135424Y-71523210D01*
X150135423Y-71523215D01*
X150094499Y-71675943D01*
X150094499Y-71675945D01*
X150094499Y-71844046D01*
X150094500Y-71844059D01*
X150094500Y-78560812D01*
X150074815Y-78627851D01*
X150022011Y-78673606D01*
X149952853Y-78683550D01*
X149914205Y-78671297D01*
X149754223Y-78589781D01*
X149559534Y-78526522D01*
X149384995Y-78498878D01*
X149357352Y-78494500D01*
X149152648Y-78494500D01*
X149128329Y-78498351D01*
X148950465Y-78526522D01*
X148755773Y-78589782D01*
X148735794Y-78599963D01*
X148667125Y-78612859D01*
X148602384Y-78586582D01*
X148562128Y-78529475D01*
X148555500Y-78489478D01*
X148555500Y-69896097D01*
X148575185Y-69829058D01*
X148591819Y-69808416D01*
X149152178Y-69248058D01*
X149735520Y-68664716D01*
X149814577Y-68527784D01*
X149855501Y-68375057D01*
X149855501Y-68216942D01*
X149855501Y-68209347D01*
X149855500Y-68209329D01*
X149855500Y-66584601D01*
X149875185Y-66517562D01*
X149923206Y-66474116D01*
X149936610Y-66467287D01*
X150102219Y-66346966D01*
X150246966Y-66202219D01*
X150246968Y-66202215D01*
X150246971Y-66202213D01*
X150367284Y-66036614D01*
X150367285Y-66036613D01*
X150367287Y-66036610D01*
X150414516Y-65943917D01*
X150462489Y-65893123D01*
X150530310Y-65876328D01*
X150596445Y-65898865D01*
G37*
%TD.AperFunction*%
%TA.AperFunction,Conductor*%
G36*
X152559313Y-70669984D02*
G01*
X152613191Y-70714469D01*
X152634465Y-70781021D01*
X152634500Y-70783972D01*
X152634500Y-78560812D01*
X152614815Y-78627851D01*
X152562011Y-78673606D01*
X152492853Y-78683550D01*
X152454205Y-78671297D01*
X152294223Y-78589781D01*
X152099534Y-78526522D01*
X151924995Y-78498878D01*
X151897352Y-78494500D01*
X151692648Y-78494500D01*
X151652184Y-78500909D01*
X151490464Y-78526523D01*
X151490457Y-78526524D01*
X151457817Y-78537130D01*
X151387976Y-78539125D01*
X151328143Y-78503044D01*
X151297316Y-78440343D01*
X151295500Y-78419199D01*
X151295500Y-72055096D01*
X151315185Y-71988057D01*
X151331815Y-71967419D01*
X152163713Y-71135521D01*
X152163716Y-71135520D01*
X152275520Y-71023716D01*
X152325639Y-70936904D01*
X152354577Y-70886785D01*
X152390726Y-70751875D01*
X152427090Y-70692218D01*
X152489937Y-70661689D01*
X152559313Y-70669984D01*
G37*
%TD.AperFunction*%
%TA.AperFunction,Conductor*%
G36*
X144898929Y-66527079D02*
G01*
X144939187Y-66584185D01*
X144945815Y-66624184D01*
X144945815Y-78525815D01*
X144926130Y-78592854D01*
X144873326Y-78638609D01*
X144804168Y-78648553D01*
X144765520Y-78636300D01*
X144674223Y-78589781D01*
X144479534Y-78526522D01*
X144304995Y-78498878D01*
X144277352Y-78494500D01*
X144072648Y-78494500D01*
X144032184Y-78500909D01*
X143870464Y-78526523D01*
X143870461Y-78526523D01*
X143769133Y-78559447D01*
X143699291Y-78561442D01*
X143639459Y-78525361D01*
X143608631Y-78462660D01*
X143606815Y-78441516D01*
X143606815Y-66708483D01*
X143626500Y-66641444D01*
X143679304Y-66595689D01*
X143748462Y-66585745D01*
X143769131Y-66590551D01*
X143811419Y-66604291D01*
X143870465Y-66623477D01*
X143956212Y-66637058D01*
X144072648Y-66655500D01*
X144072649Y-66655500D01*
X144277351Y-66655500D01*
X144277352Y-66655500D01*
X144479534Y-66623477D01*
X144674219Y-66560220D01*
X144765519Y-66513699D01*
X144834188Y-66500803D01*
X144898929Y-66527079D01*
G37*
%TD.AperFunction*%
%TA.AperFunction,Conductor*%
G36*
X148056445Y-65898865D02*
G01*
X148095485Y-65943919D01*
X148142715Y-66036614D01*
X148263028Y-66202213D01*
X148263034Y-66202219D01*
X148407781Y-66346966D01*
X148573390Y-66467287D01*
X148586793Y-66474116D01*
X148637589Y-66522088D01*
X148654500Y-66584601D01*
X148654500Y-67995902D01*
X148634815Y-68062941D01*
X148618181Y-68083583D01*
X147474481Y-69227282D01*
X147474479Y-69227285D01*
X147424361Y-69314094D01*
X147424359Y-69314096D01*
X147395425Y-69364209D01*
X147395424Y-69364210D01*
X147395423Y-69364215D01*
X147354499Y-69516943D01*
X147354499Y-69516945D01*
X147354499Y-69685046D01*
X147354500Y-69685059D01*
X147354500Y-78464688D01*
X147334815Y-78531727D01*
X147282011Y-78577482D01*
X147212853Y-78587426D01*
X147192182Y-78582619D01*
X147019536Y-78526523D01*
X146857816Y-78500909D01*
X146817352Y-78494500D01*
X146612648Y-78494500D01*
X146572184Y-78500909D01*
X146410464Y-78526523D01*
X146410461Y-78526523D01*
X146309133Y-78559447D01*
X146239291Y-78561442D01*
X146179459Y-78525361D01*
X146148631Y-78462660D01*
X146146815Y-78441516D01*
X146146815Y-66708483D01*
X146166500Y-66641444D01*
X146219304Y-66595689D01*
X146288462Y-66585745D01*
X146309131Y-66590551D01*
X146351419Y-66604291D01*
X146410465Y-66623477D01*
X146496212Y-66637058D01*
X146612648Y-66655500D01*
X146612649Y-66655500D01*
X146817351Y-66655500D01*
X146817352Y-66655500D01*
X147019534Y-66623477D01*
X147214219Y-66560220D01*
X147396610Y-66467287D01*
X147489590Y-66399732D01*
X147562213Y-66346971D01*
X147562215Y-66346968D01*
X147562219Y-66346966D01*
X147706966Y-66202219D01*
X147706968Y-66202215D01*
X147706971Y-66202213D01*
X147827284Y-66036614D01*
X147827285Y-66036613D01*
X147827287Y-66036610D01*
X147874516Y-65943917D01*
X147922489Y-65893123D01*
X147990310Y-65876328D01*
X148056445Y-65898865D01*
G37*
%TD.AperFunction*%
%TA.AperFunction,Conductor*%
G36*
X129353834Y-68447915D02*
G01*
X129409767Y-68489787D01*
X129434184Y-68555251D01*
X129434500Y-68564097D01*
X129434500Y-78419199D01*
X129414815Y-78486238D01*
X129362011Y-78531993D01*
X129292853Y-78541937D01*
X129272183Y-78537130D01*
X129239542Y-78526524D01*
X129239535Y-78526523D01*
X129138443Y-78510511D01*
X129037352Y-78494500D01*
X128832648Y-78494500D01*
X128792184Y-78500909D01*
X128630464Y-78526523D01*
X128630457Y-78526524D01*
X128597817Y-78537130D01*
X128527976Y-78539125D01*
X128468143Y-78503044D01*
X128437316Y-78440343D01*
X128435500Y-78419199D01*
X128435500Y-69315097D01*
X128455185Y-69248058D01*
X128471819Y-69227416D01*
X128867208Y-68832027D01*
X129222820Y-68476415D01*
X129284142Y-68442931D01*
X129353834Y-68447915D01*
G37*
%TD.AperFunction*%
%TD*%
M02*
